<?xml version="1.0" encoding="utf-8"?>
<!-- Generator: Adobe Illustrator 21.0.2, SVG Export Plug-In . SVG Version: 6.00 Build 0)  -->
<svg version="1.1" xmlns="http://www.w3.org/2000/svg" xmlns:xlink="http://www.w3.org/1999/xlink" x="0px" y="0px"
	 viewBox="0 0 1200 780" style="enable-background:new 0 0 1200 780;" xml:space="preserve">
<style type="text/css">
	.st0{fill:#DF7401;}
	.st1{display:none;}
	.st2{display:inline;fill:#0C27EA;}
	.st3{display:inline;fill:#D60505;}
	.st4{display:inline;fill:none;}
</style>
<g id="Capa_1">
</g>
<g id="Capa_2">
	<ellipse transform="matrix(1 -7.654967e-03 7.654967e-03 1 -3.4637 6.2335)" class="st0" cx="812.6" cy="455.6" rx="36" ry="36"/>
	<path class="st0" d="M1007.1,505.1c11.1,1,15.1,5.2,12,12.6c-5.8,15.4-29.2,35.3-68.2,38.1c-35.2,2.3-98.4-2.1-139.2,1.7
		c-42.9,4.3-69.6,18.6-56.5,38.7c15.5,24.4,76.2,34.2,130.6,31.6c7.2-0.1,10.3,3.8,6.2,9.4c-4.1,5.6-19.4,14.3-41,16.1
		c-42.7,3.3-98.2-16-115.6-50.7c-17-34-7.2-62.3,21.5-78.7c-36.2-5.3-74.5-19.8-91.3-49.2c-32.4-56.8,38.5-112.7,141.4-104.2
		c100.3,8.3,155.4,40.9,172.8,71.5c15,26.3,1.8,50-22.7,62.4C976.5,504,993.5,504,1007.1,505.1z M954.2,470.5
		c-9.3-20.6-74.5-42.5-148.1-45.1c-71-2.4-129.3,20.4-116.3,44.5c13.7,25.4,70.9,34.9,142.5,35.3
		C921.4,505.4,962.5,489.3,954.2,470.5z"/>
	<path class="st0" d="M882.8,319.9c-14.2-25.1-73.4-37.8-127.9-37.9c-7.2-0.3-9.5-4.7-5.7-9.7c4.4-5.4,20.4-14.2,41.5-14.6
		c43.1-0.5,96,21.7,111.6,57.2c15.2,34.9,4.9,61.3-24.6,76.2c35.3,7.4,72.8,24,87.7,53.5c29.5,58.4-44.6,110-146,96.5
		c-97.9-12.9-151.5-48.9-167.3-80.3c-13-25.8,0.1-48.1,23.7-59.2c-81.8-1.3-191.3-5.9-234.8-12.4c-12-1.8-14.2-7.8-7.6-15.1
		c16.3-19.2,44.3-31,104.7-28.4c69.2,2.9,203.3,10.9,285.7,8.7C868.8,353,894.8,340.6,882.8,319.9z M823.6,486.8
		c71.1,6.7,129.3-14,117.5-38.8c-12-25.4-66.2-40.7-138.3-41.4c-88.1-1.3-132.4,9.3-123.9,27.8C688.2,454.3,750.9,480.2,823.6,486.8
		z"/>
	
		<ellipse transform="matrix(7.654967e-03 -1 1 7.654967e-03 348.5652 1262.4316)" class="st0" cx="810.3" cy="455.6" rx="36" ry="36"/>
	<path class="st0" d="M665.6,504.4c-24.5-12.4-37.7-36.1-22.7-62.4c17.4-30.5,72.5-63.1,172.8-71.5
		c102.9-8.5,173.8,47.4,141.4,104.2c-16.7,29.3-55,43.9-91.3,49.2c28.7,16.4,38.5,44.7,21.5,78.7c-17.3,34.7-72.9,54-115.6,50.7
		c-21.6-1.8-36.9-10.5-41-16.1c-4.1-5.6-1.1-9.5,6.2-9.4c54.4,2.7,115.1-7.2,130.6-31.6c13.1-20.1-13.5-34.5-56.5-38.7
		c-40.8-3.8-104,0.6-139.2-1.7c-38.9-2.8-62.4-22.7-68.2-38.1c-3.1-7.4,1-11.6,12-12.6C629.4,504,646.4,504,665.6,504.4z
		 M790.6,505.3c71.6-0.5,128.8-9.9,142.5-35.3c13-24.2-45.3-46.9-116.3-44.5c-73.6,2.6-138.7,24.5-148.1,45.1
		C660.4,489.3,701.5,505.4,790.6,505.3z"/>
	<path class="st0" d="M799.1,354.4c82.4,2.2,216.5-5.8,285.7-8.7c60.4-2.6,88.4,9.1,104.7,28.4c6.6,7.3,4.4,13.2-7.6,15.1
		c-43.4,6.5-152.9,11.1-234.8,12.4c23.6,11.1,36.7,33.5,23.7,59.2c-15.8,31.4-69.5,67.4-167.3,80.3c-101.4,13.5-175.4-38.1-146-96.5
		c14.9-29.5,52.4-46.1,87.7-53.5c-29.5-14.9-39.8-41.4-24.6-76.2c15.5-35.5,68.5-57.6,111.6-57.2c21.1,0.4,37.1,9.3,41.5,14.6
		c3.8,5,1.5,9.4-5.7,9.7c-54.4,0.1-113.6,12.8-127.9,37.9C728.1,340.6,754.2,353,799.1,354.4z M943.9,434.5
		c8.6-18.5-35.8-29.1-123.9-27.8c-72.1,0.7-126.2,15.9-138.3,41.4c-11.7,24.8,46.4,45.5,117.5,38.8
		C872,480.2,934.7,454.3,943.9,434.5z"/>
</g>
<g id="Capa_3" class="st1">
	<path class="st2" d="M261.7,429.7c32.3,0.1,58.6,0.2,78.9,0.3c20.3,0.2,31.2,0.2,32.8,0.3c0.1,1.3,0.6,7.4,1.4,18.2
		c0.8,10.8,1.2,24.7,1.2,41.8c0,10.7-1,21.4-3,32.2c-2,10.8-4.8,20.1-8.4,27.9c-4.8,10.4-11.4,18.8-19.8,25.3
		c-8.3,6.4-18.4,9.6-30.1,9.6c-12.4,0-23.1-3.8-32.1-11.5c-9-7.6-16.3-18.2-21.9-31.8c-3.5-8.5-6.6-19.8-9.4-33.9
		c-2.8-14.1-4.9-30.2-6.3-48.4c-10.2,0.8-18.5,3.3-25,7.6c-6.5,4.3-11.5,10.6-14.9,18.9c-2.4,5.7-4,12.1-5,19.1s-1.5,15.2-1.5,24.6
		c0,5.9,0.1,10.8,0.4,14.9c0.3,4.1-31.5,109.9-26.1,61.7l1.1-48.2c-0.1-2-0.3-5.8-0.7-11.6c-0.3-5.8-0.5-13.7-0.4-23.7
		c0-15.4,1.6-29.1,4.9-41.1c3.2-12,8.4-22,15.6-30c6.8-7.4,15.2-13,25.1-16.8C228.4,431.5,242.8,429.6,261.7,429.7z M308.7,459.6
		c-4.4,0-10,0-16.8,0c-6.8,0-14.6,0-23.4,0.2c0.3,5.7,1.4,15.8,3.4,30.1c2,14.3,4.9,26.4,8.6,36.1c2.7,7.3,6.8,13.8,12.3,19.5
		s12.2,8.5,20.3,8.5c8.9,0,16-2.4,21.4-7.2c5.4-4.8,9.6-11.4,12.4-19.7c2.2-6.4,3.8-13.4,4.8-21.2c1-7.7,1.5-15.9,1.5-24.5
		c0-2.6-0.1-5.8-0.2-9.6c-0.1-3.8-0.2-7.7-0.4-11.9c-0.9,0-5.2,0-12.9-0.1C332.1,459.7,321.8,459.6,308.7,459.6z"/>
	<path class="st3" d="M211.8,598.5c0-0.8,0-3.3-0.1-7.4c-0.1-4.2-0.1-7.5-0.1-10c0-24.6,1.1-43.9,3.3-57.8
		c2.2-13.9,6.4-27.5,12.8-40.8c8.4-17.3,19.4-30.4,33.2-39.4c13.8-9,29.2-13.4,46.1-13.4c19.8,0,37.3,5.1,52.6,15.1
		c15.3,10,27.2,24.5,35.7,43.4c5.2,11.1,9.1,23.8,11.7,38.1c2.6,14.3,4,28.4,3.9,42.2l90-0.5l0,30.9c-2.6,0-20.8-0.2-54.7-0.5
		c-33.8-0.3-68.1-0.5-102.9-0.5c-27.5,0-52.3,0-74.5,0.2C246.9,598.2,227.8,598.4,211.8,598.5z M349,568.4c5.2,0,10.9,0,17.2,0
		c6.2,0,12.5,0,18.9,0c0-13-1.1-25.3-3.3-36.8c-2.2-11.5-5.2-21.4-8.9-29.6c-6-13-14.5-23.1-25.6-30.3
		c-11.1-7.2-24.1-10.8-39.1-10.8c-13.4,0-24.9,3.4-34.5,10.3c-9.6,6.9-17.2,15.5-22.7,25.7c-4.8,9-8.5,19.1-10.9,30.4
		c-2.4,11.3-3.6,23.1-3.7,35.4c0,0.9,0,1.8,0,2.5c0,0.8,0,1.6,0,2.5c1.2,0,10.9,0.1,29.2,0.2C283.8,568.2,311.6,568.3,349,568.4z"/>
</g>
<g id="Capa_4" class="st1">
	<path class="st4" d="M537.8,265H886c0,0,61.4,68.5,0,68.5"/>
</g>
</svg>
