<?xml version="1.0" encoding="utf-8"?>
<!-- Generator: Adobe Illustrator 21.0.2, SVG Export Plug-In . SVG Version: 6.00 Build 0)  -->
<svg version="1.1" xmlns="http://www.w3.org/2000/svg" xmlns:xlink="http://www.w3.org/1999/xlink" x="0px" y="0px"
	 viewBox="0 0 1200 780" style="enable-background:new 0 0 1200 780;" xml:space="preserve">
<style type="text/css">
	.st0{display:none;}
	.st1{display:inline;}
</style>
<g id="Capa_2" class="st0">
	<path class="st1" d="M1094.8,487.8c20.4,1.5,27.8,9.1,22.4,22.7C1107,539,1064.3,576,993,581.9c-64.5,4.9-180.7-1.7-255.4,6.3
		c-78.7,8.8-127.2,35.7-102.8,72.2c29,44.2,140.7,61,240.5,54.8c13.3-0.3,19,6.8,11.6,17.1c-7.4,10.3-35.2,26.6-74.9,30.5
		c-78.2,7-180.7-27.1-213.3-90.1c-32-62-14.7-113.9,37.7-144.6c-66.6-8.8-137.2-34.6-168.6-88C406.7,336.7,535.7,232.7,724.7,246
		c184.4,13,286.2,71.4,318.9,126.9c28.1,47.8,4.5,91.5-40.3,114.8C1038.6,486.4,1069.8,486.1,1094.8,487.8z M996.8,425.7
		c-17.6-37.5-137.7-76.2-272.8-79.2c-130.4-2.7-236.9,40.3-212.5,84.2c25.7,46.2,131,62.2,262.3,61.4
		C937.5,490.4,1012.5,459.9,996.8,425.7z"/>
	<path class="st1" d="M891.2,144.2c-26.7-45.7-135.7-67.6-235.6-66.5c-13.3-0.4-17.5-8.4-10.7-17.7c7.9-9.9,37.1-26.5,75.8-27.7
		c79.1-1.8,176.8,37.5,206.1,102.2c28.7,63.5,10.5,112.2-43.4,140.2c64.9,12.8,134.1,42.2,162.1,96c55.4,106.3-79.3,202.4-265.7,180
		c-180-21.3-279.2-86-309-143.2c-24.4-46.9-0.8-88.2,42.1-109c-150.2-0.5-351.3-6.5-431.2-17.3c-22-3.1-26.2-14-14.3-27.4
		c29.5-35.6,80.5-57.8,191.5-54.4c127.1,3.7,373.4,15.4,524.6,9.5C866.2,205.1,913.8,181.9,891.2,144.2z M786.4,451.3
		c130.7,10.6,236.9-28.6,214.8-73.8c-22.7-46.3-122.5-73-254.7-72.6c-161.7-0.3-242.9,20-226.7,53.8
		C537.1,394.8,652.8,440.8,786.4,451.3z"/>
	<path class="st1" d="M786,357.2c-24.5-0.2-44.5,19.5-44.7,44c-0.2,24.5,19.5,44.5,44,44.7c24.5,0.2,44.5-19.5,44.7-44
		S810.5,357.4,786,357.2z M785.6,412.7c-6.1,0-11.1-5.1-11-11.2c0-6.1,5.1-11.1,11.2-11c6.1,0,11.1,5.1,11,11.2
		C796.7,407.8,791.7,412.7,785.6,412.7z"/>
</g>
<g id="Capa_5" class="st0">
	
		<ellipse transform="matrix(7.654967e-03 -1 1 7.654967e-03 227.797 1325.2679)" class="st1" cx="781.6" cy="547.9" rx="32.1" ry="32.1"/>
	<path class="st1" d="M652.5,591.4c-21.9-11-33.6-32.2-20.3-55.7c15.6-27.3,64.7-56.3,154.2-63.8c91.8-7.6,155.1,42.3,126.2,93
		c-14.9,26.2-49.1,39.2-81.4,43.9c25.6,14.6,34.4,39.8,19.2,70.2c-15.5,30.9-65.1,48.1-103.1,45.2c-19.3-1.6-32.9-9.4-36.6-14.4
		c-3.7-5-0.9-8.5,5.5-8.4c48.5,2.4,102.7-6.4,116.5-28.2c11.7-17.9-12.1-30.7-50.4-34.5c-36.4-3.4-92.8,0.5-124.2-1.5
		c-34.7-2.5-55.7-20.2-60.8-34c-2.7-6.6,0.9-10.4,10.7-11.2C620.2,591,635.4,591,652.5,591.4z M764,592.2
		c63.8-0.4,114.9-8.8,127.1-31.5c11.6-21.6-40.4-41.9-103.8-39.7c-65.6,2.3-123.8,21.9-132.1,40.2
		C647.9,577.9,684.5,592.3,764,592.2z"/>
	<path class="st1" d="M771.6,457.5c73.5,1.9,193.1-5.2,254.9-7.8c53.9-2.3,78.8,8.1,93.4,25.3c5.9,6.5,3.9,11.8-6.8,13.4
		c-38.8,5.8-136.5,9.9-209.4,11.1c21,9.9,32.7,29.9,21.1,52.8c-14.1,28-62,60.1-149.3,71.6c-90.4,12-156.5-34-130.2-86.1
		c13.3-26.3,46.7-41.1,78.2-47.7c-26.3-13.3-35.5-36.9-21.9-68c13.9-31.7,61.1-51.4,99.6-51c18.8,0.3,33.1,8.3,37,13
		c3.4,4.5,1.4,8.4-5.1,8.7c-48.6,0.1-101.4,11.4-114.1,33.8C708.2,445.3,731.5,456.3,771.6,457.5z M900.8,529
		c7.6-16.5-31.9-25.9-110.5-24.8c-64.3,0.6-112.6,14.2-123.4,36.9c-10.5,22.1,41.4,40.6,104.9,34.6
		C836.6,569.8,892.6,546.7,900.8,529z"/>
</g>
<g id="Capa_3" class="st0">
	
		<ellipse transform="matrix(1 -7.654967e-03 7.654967e-03 1 -4.1832 3.1606)" class="st1" cx="410.8" cy="548" rx="32.1" ry="32.1"/>
	<path class="st1" d="M584.4,592.2c9.9,0.9,13.5,4.6,10.7,11.2c-5.1,13.8-26.1,31.5-60.8,34c-31.4,2-87.8-1.9-124.2,1.5
		c-38.3,3.8-62.1,16.6-50.4,34.5c13.8,21.7,68,30.5,116.5,28.2c6.5-0.1,9.2,3.4,5.5,8.4c-3.7,5-17.3,12.8-36.6,14.4
		c-38.1,2.9-87.7-14.3-103.1-45.2c-15.2-30.4-6.4-55.6,19.2-70.2c-32.3-4.7-66.5-17.7-81.4-43.9c-28.9-50.7,34.4-100.6,126.2-93
		c89.5,7.4,138.6,36.5,154.2,63.8c13.4,23.4,1.6,44.6-20.3,55.7C557.1,591.2,572.2,591.2,584.4,592.2z M537.1,561.4
		c-8.3-18.4-66.5-37.9-132.1-40.2c-63.4-2.1-115.4,18.2-103.8,39.7c12.2,22.7,63.3,31.1,127.1,31.5
		C507.9,592.5,544.5,578.1,537.1,561.4z"/>
	<path class="st1" d="M473.4,426.9c-12.7-22.4-65.5-33.7-114.1-33.8c-6.5-0.3-8.4-4.2-5.1-8.7c3.9-4.8,18.2-12.7,37-13
		c38.5-0.4,85.7,19.3,99.6,51c13.6,31.1,4.4,54.7-21.9,68c31.5,6.6,64.9,21.4,78.2,47.7c26.3,52.1-39.8,98.1-130.2,86.1
		c-87.3-11.5-135.2-43.6-149.3-71.6c-11.6-23,0.1-42.9,21.1-52.8c-73-1.1-170.7-5.3-209.4-11.1c-10.7-1.6-12.7-7-6.8-13.4
		c14.5-17.2,39.5-27.6,93.4-25.3c61.8,2.6,181.4,9.7,254.9,7.8C460.9,456.5,484.2,445.4,473.4,426.9z M420.6,575.9
		c63.5,6,115.3-12.5,104.9-34.6c-10.7-22.7-59.1-36.3-123.4-36.9c-78.6-1.1-118.1,8.3-110.5,24.8C299.8,546.9,355.8,570,420.6,575.9
		z"/>
</g>
<g id="Capa_3_copia">
	<ellipse transform="matrix(1 -7.654967e-03 7.654967e-03 1 -2.9439 5.6535)" cx="737.1" cy="387.4" rx="67.7" ry="67.7"/>
	<path d="M1103.5,480.7c20.9,1.8,28.4,9.7,22.7,23.7c-10.9,29.1-55.1,66.5-128.4,71.8c-66.2,4.2-185.4-4-262.1,3.2
		c-80.9,8-131,35.1-106.4,72.9c29.2,45.9,143.6,64.5,246,59.4c13.6-0.2,19.4,7.2,11.7,17.8c-7.7,10.5-36.5,26.9-77.3,30.4
		c-80.4,6.2-185-30.2-217.7-95.4c-32-64.1-13.6-117.4,40.5-148.2c-68.2-9.9-140.3-37.4-171.9-92.6c-61.1-107,72.6-212.3,266.3-196.3
		c189,15.7,292.7,77.1,325.5,134.6c28.2,49.5,3.4,94.2-42.8,117.5C1045.8,478.5,1077.9,478.5,1103.5,480.7z M1003.8,415.5
		c-17.6-38.8-140.3-80.1-278.9-84.9c-133.8-4.5-243.6,38.3-219.1,83.9c25.8,47.8,133.6,65.6,268.4,66.5
		C942.1,481.3,1019.4,450.9,1003.8,415.5z"/>
	<path d="M869.3,131.8C842.5,84.4,731,60.5,628.5,60.3c-13.6-0.5-17.8-8.8-10.7-18.3c8.3-10.1,38.4-26.8,78.1-27.5
		c81.2-0.9,180.9,40.8,210.2,107.7c28.7,65.7,9.3,115.5-46.3,143.6c66.4,14,137,45.1,165.1,100.8c55.5,110-84,207.1-274.9,181.7
		c-184.4-24.2-285.4-92-315.2-151.2c-24.5-48.5,0.3-90.7,44.6-111.6C325.3,283,119,274.3,37.2,262.1c-22.5-3.5-26.7-14.7-14.3-28.4
		c30.7-36.3,83.3-58.4,197.1-53.4c130.4,5.5,382.9,20.6,538.1,16.5C842.9,194.1,892,170.8,869.3,131.8z M757.9,446.2
		c134,12.6,243.5-26.3,221.4-73.1c-22.7-47.9-124.7-76.6-260.4-77.9c-165.9-2.4-249.4,17.5-233.3,52.4
		C502.8,384.9,620.9,433.7,757.9,446.2z"/>
</g>
</svg>
