<svg id="Capa_5" data-name="Capa 5" xmlns="http://www.w3.org/2000/svg" viewBox="0 0 955.57 641.07"><title>logo</title><circle cx="507.93" cy="389.96" r="58.2" transform="translate(-57.84 825.42) rotate(-89.56)"/><path d="M273.66,468.94c-39.69-20-61-58.44-36.76-101,28.22-49.44,117.32-102.16,279.72-115.65C683.12,238.55,798,329,745.49,421c-27.09,47.47-89.08,71.08-147.69,79.58,46.48,26.53,62.32,72.28,34.8,127.37-28.08,56.08-118,87.33-187.09,82-35-2.95-59.75-17.06-66.39-26.1s-1.7-15.39,10-15.26c88,4.34,186.28-11.67,211.4-51.08,21.17-32.49-21.92-55.78-91.4-62.66-66-6.19-168.35.92-225.27-2.72-63-4.49-101-36.67-110.33-61.67q-7.42-18,19.48-20.35C215,468.26,242.59,468.25,273.66,468.94ZM476,470.4c115.81-.76,208.45-16.05,230.6-57.16,21-39.13-73.33-75.95-188.29-72.08-119.06,4.15-224.54,39.65-239.64,73C265.32,444.51,331.71,470.61,476,470.4Z" transform="translate(-171.93 -69.47)"/><path d="M489.78,226.13c133.4,3.53,350.38-9.46,462.42-14.16,97.78-4.24,143,14.76,169.41,45.92,10.65,11.75,7.05,21.41-12.31,24.4-70.31,10.45-247.54,18-379.95,20,38.13,18,59.39,54.19,38.36,95.87C742.08,449,655.31,507.29,496.87,528.12c-164,21.83-283.93-61.6-236.24-156.14,24.1-47.78,84.79-74.56,141.87-86.58C354.72,261.3,338.06,218.46,362.7,162c25.15-57.45,110.83-93.3,180.59-92.55,34.12.63,60,15,67.13,23.66,6.08,8.17,2.49,15.29-9.22,15.75-88.1.2-183.9,20.74-207,61.39C374.78,203.83,417,223.83,489.78,226.13ZM724.08,355.78c13.86-30-57.88-47.05-200.47-45C407,311.89,319.32,336.54,299.82,377.71c-19,40.16,75.1,73.59,190.22,62.8C607.71,429.72,709.2,387.81,724.08,355.78Z" transform="translate(-171.93 -69.47)"/></svg>